<svg version="1.1" id="Layer_1" xmlns="http://www.w3.org/2000/svg" xmlns:xlink="http://www.w3.org/1999/xlink" x="0px" y="0px"
	 width="100%" viewBox="0 0 500 500" enable-background="new 0 0 500 500" xml:space="preserve">
<path fill="#0DBA4B" opacity="1.000000" stroke="none" 
	d="
M282.000000,501.000000 
	C261.645782,501.000000 241.291550,501.000000 220.573364,500.584534 
	C219.534607,499.790039 218.901642,499.216125 218.178772,499.060883 
	C204.284760,496.078003 190.157074,493.925568 176.525345,490.033600 
	C150.111191,482.492249 125.947708,469.966339 103.710388,453.873810 
	C87.045334,441.813812 71.877937,427.983398 58.793953,412.119080 
	C44.744740,395.084473 33.035877,376.486176 23.683886,356.393951 
	C13.011783,333.465576 5.942253,309.572998 2.918016,284.464203 
	C2.811354,283.578644 1.662901,282.818573 0.999999,282.000000 
	C1.000000,260.979095 1.000000,239.958206 1.412595,218.558624 
	C2.212145,217.340408 2.794860,216.536484 2.955034,215.655716 
	C4.215316,208.725647 5.048326,201.699203 6.661665,194.855362 
	C12.375282,170.618042 20.551725,147.179398 33.755611,126.015556 
	C42.503662,111.993759 52.567410,98.702469 62.972687,85.836723 
	C69.899811,77.271591 78.054825,69.556175 86.412331,62.330292 
	C95.327705,54.622089 104.653419,47.166920 114.662582,41.001701 
	C127.065102,33.362282 140.071655,26.544199 153.326141,20.484365 
	C173.548920,11.238697 194.899368,5.503538 217.051224,2.926984 
	C218.094742,2.805607 219.019775,1.665613 220.000000,1.000001 
	C240.354233,1.000000 260.708466,1.000000 281.421265,1.411132 
	C284.723297,2.536839 287.629913,3.544857 290.615997,3.919656 
	C314.940704,6.972785 337.755463,14.927303 359.734985,25.399380 
	C378.498077,34.339005 395.668976,45.741131 411.740173,59.011700 
	C425.847931,70.660950 438.291565,83.849266 449.424866,98.157555 
	C461.823578,114.092140 472.197540,131.379318 480.115417,150.114532 
	C489.552124,172.443619 496.531250,195.358566 499.083832,219.537613 
	C499.176575,220.416046 500.337097,221.181747 501.000000,222.000000 
	C501.000000,241.687561 501.000000,261.375122 500.585144,281.425903 
	C499.781677,282.796509 499.206268,283.773407 499.035797,284.816467 
	C498.163208,290.155426 497.676697,295.572205 496.538666,300.850403 
	C492.769470,318.332184 487.487488,335.278870 480.273041,351.744965 
	C470.019196,375.148193 456.610504,396.463287 439.755219,415.478546 
	C430.806122,425.574524 421.051910,435.183868 410.531219,443.600433 
	C398.278320,453.402740 385.378571,462.711243 371.713654,470.367401 
	C344.463379,485.635162 315.226288,495.686462 283.944611,499.095215 
	C283.235657,499.172516 282.645538,500.340668 282.000000,501.000000 
M181.034927,132.555298 
	C170.777588,147.735092 168.085388,164.281616 169.833008,182.473618 
	C174.108459,226.979218 218.990280,250.622742 254.245895,245.365158 
	C263.238190,244.024155 269.156464,236.982178 269.047485,228.625229 
	C268.942841,220.603180 262.453918,213.081406 254.068527,211.684402 
	C250.641479,211.113449 247.102646,211.170288 243.611008,211.037277 
	C220.553467,210.158875 208.492126,199.107193 205.695541,176.258743 
	C203.881744,161.439819 211.871002,145.083115 225.107101,137.930405 
	C240.072083,129.843445 255.130173,129.731659 269.375824,139.719894 
	C280.867767,147.777359 284.923218,160.414948 285.644012,173.236465 
	C286.951294,196.490845 286.473236,219.845963 286.703369,243.159393 
	C286.714722,244.309326 286.371246,245.462448 286.195953,246.614563 
	C284.983643,254.582199 282.050293,256.818451 274.152405,256.487915 
	C251.395950,255.535522 229.764496,259.851624 209.812347,271.133301 
	C174.602264,291.042450 162.086670,337.467102 182.702560,371.230499 
	C197.200562,394.974396 231.880890,409.139099 261.817169,403.699677 
	C300.083252,396.746796 327.011444,364.294586 332.294403,327.049225 
	C333.810150,316.363098 327.409058,308.033386 317.323273,306.471558 
	C306.720978,304.829803 297.736603,311.068329 295.854095,321.781342 
	C293.975006,332.474915 289.849609,342.084656 283.608063,350.951202 
	C270.642395,369.369812 250.775513,374.199982 229.703491,366.126740 
	C220.960373,362.777039 214.414734,356.676544 211.307068,347.591095 
	C205.431030,330.412170 212.066116,311.635040 227.270554,301.611664 
	C237.875397,294.620544 249.659256,291.603424 262.175415,291.161041 
	C270.662750,290.861084 279.266357,291.691803 287.634521,290.604797 
	C308.069977,287.950256 322.681610,270.478180 322.918823,249.208008 
	C323.115784,231.546341 323.326935,213.876846 323.009247,196.220215 
	C322.800507,184.617432 322.622986,172.875656 320.772919,161.465042 
	C313.266998,115.170685 274.748962,93.466728 239.025208,98.845634 
	C215.365158,102.408112 195.726074,112.378632 181.034927,132.555298 
z"/>
<path fill="#000000" opacity="1.000000" stroke="none" 
	d="
M501.000000,221.531342 
	C500.337097,221.181747 499.176575,220.416046 499.083832,219.537613 
	C496.531250,195.358566 489.552124,172.443619 480.115417,150.114532 
	C472.197540,131.379318 461.823578,114.092140 449.424866,98.157555 
	C438.291565,83.849266 425.847931,70.660950 411.740173,59.011700 
	C395.668976,45.741131 378.498077,34.339005 359.734985,25.399380 
	C337.755463,14.927303 314.940704,6.972785 290.615997,3.919656 
	C287.629913,3.544857 284.723297,2.536839 281.889954,1.411132 
	C354.927368,1.000000 427.854706,1.000000 501.000000,1.000000 
	C501.000000,74.354080 501.000000,147.708389 501.000000,221.531342 
z"/>
<path fill="#000000" opacity="1.000000" stroke="none" 
	d="
M282.468658,501.000000 
	C282.645538,500.340668 283.235657,499.172516 283.944611,499.095215 
	C315.226288,495.686462 344.463379,485.635162 371.713654,470.367401 
	C385.378571,462.711243 398.278320,453.402740 410.531219,443.600433 
	C421.051910,435.183868 430.806122,425.574524 439.755219,415.478546 
	C456.610504,396.463287 470.019196,375.148193 480.273041,351.744965 
	C487.487488,335.278870 492.769470,318.332184 496.538666,300.850403 
	C497.676697,295.572205 498.163208,290.155426 499.035797,284.816467 
	C499.206268,283.773407 499.781677,282.796509 500.585144,281.894531 
	C501.000000,354.927032 501.000000,427.854065 501.000000,501.000000 
	C428.312592,501.000000 355.624939,501.000000 282.468658,501.000000 
z"/>
<path fill="#000000" opacity="1.000000" stroke="none" 
	d="
M0.999999,282.468658 
	C1.662901,282.818573 2.811354,283.578644 2.918016,284.464203 
	C5.942253,309.572998 13.011783,333.465576 23.683886,356.393951 
	C33.035877,376.486176 44.744740,395.084473 58.793953,412.119080 
	C71.877937,427.983398 87.045334,441.813812 103.710388,453.873810 
	C125.947708,469.966339 150.111191,482.492249 176.525345,490.033600 
	C190.157074,493.925568 204.284760,496.078003 218.178772,499.060883 
	C218.901642,499.216125 219.534607,499.790039 220.104706,500.584534 
	C147.072968,501.000000 74.145935,501.000000 1.000000,501.000000 
	C1.000000,428.312592 1.000000,355.624939 0.999999,282.468658 
z"/>
<path fill="#000000" opacity="1.000000" stroke="none" 
	d="
M219.531342,1.000001 
	C219.019775,1.665613 218.094742,2.805607 217.051224,2.926984 
	C194.899368,5.503538 173.548920,11.238697 153.326141,20.484365 
	C140.071655,26.544199 127.065102,33.362282 114.662582,41.001701 
	C104.653419,47.166920 95.327705,54.622089 86.412331,62.330292 
	C78.054825,69.556175 69.899811,77.271591 62.972687,85.836723 
	C52.567410,98.702469 42.503662,111.993759 33.755611,126.015556 
	C20.551725,147.179398 12.375282,170.618042 6.661665,194.855362 
	C5.048326,201.699203 4.215316,208.725647 2.955034,215.655716 
	C2.794860,216.536484 2.212145,217.340408 1.412595,218.089966 
	C1.000000,145.739288 1.000000,73.478584 1.000000,1.000000 
	C73.687416,1.000000 146.375046,1.000000 219.531342,1.000001 
z"/>
<path fill="#FEFEFE" opacity="1.000000" stroke="none" 
	d="
M181.245880,132.264893 
	C195.726074,112.378632 215.365158,102.408112 239.025208,98.845634 
	C274.748962,93.466728 313.266998,115.170685 320.772919,161.465042 
	C322.622986,172.875656 322.800507,184.617432 323.009247,196.220215 
	C323.326935,213.876846 323.115784,231.546341 322.918823,249.208008 
	C322.681610,270.478180 308.069977,287.950256 287.634521,290.604797 
	C279.266357,291.691803 270.662750,290.861084 262.175415,291.161041 
	C249.659256,291.603424 237.875397,294.620544 227.270554,301.611664 
	C212.066116,311.635040 205.431030,330.412170 211.307068,347.591095 
	C214.414734,356.676544 220.960373,362.777039 229.703491,366.126740 
	C250.775513,374.199982 270.642395,369.369812 283.608063,350.951202 
	C289.849609,342.084656 293.975006,332.474915 295.854095,321.781342 
	C297.736603,311.068329 306.720978,304.829803 317.323273,306.471558 
	C327.409058,308.033386 333.810150,316.363098 332.294403,327.049225 
	C327.011444,364.294586 300.083252,396.746796 261.817169,403.699677 
	C231.880890,409.139099 197.200562,394.974396 182.702560,371.230499 
	C162.086670,337.467102 174.602264,291.042450 209.812347,271.133301 
	C229.764496,259.851624 251.395950,255.535522 274.152405,256.487915 
	C282.050293,256.818451 284.983643,254.582199 286.195953,246.614563 
	C286.371246,245.462448 286.714722,244.309326 286.703369,243.159393 
	C286.473236,219.845963 286.951294,196.490845 285.644012,173.236465 
	C284.923218,160.414948 280.867767,147.777359 269.375824,139.719894 
	C255.130173,129.731659 240.072083,129.843445 225.107101,137.930405 
	C211.871002,145.083115 203.881744,161.439819 205.695541,176.258743 
	C208.492126,199.107193 220.553467,210.158875 243.611008,211.037277 
	C247.102646,211.170288 250.641479,211.113449 254.068527,211.684402 
	C262.453918,213.081406 268.942841,220.603180 269.047485,228.625229 
	C269.156464,236.982178 263.238190,244.024155 254.245895,245.365158 
	C218.990280,250.622742 174.108459,226.979218 169.833008,182.473618 
	C168.085388,164.281616 170.777588,147.735092 181.245880,132.264893 
z"/>
</svg>